<?xml version="1.0" encoding="UTF-8"?>
<svg id="Layer_1" xmlns="http://www.w3.org/2000/svg" version="1.1" viewBox="0 0 1000 1000">
  <!-- Generator: Adobe Illustrator 29.5.0, SVG Export Plug-In . SVG Version: 2.1.0 Build 137)  -->
  <defs>
    <style>
      .st0 {
        fill: #a3cc3a;
      }

      .st1 {
        font-size: 147.71px;
      }

      .st1, .st2 {
        font-family: DunbarText-ExtraBold, 'Dunbar Text';
        font-weight: 700;
      }

      .st1, .st3 {
        fill: #48b7e8;
      }

      .st2 {
        fill: #4ab7e8;
        font-size: 122.15px;
      }
    </style>
  </defs>
  <text class="st2" transform="translate(24.22 852.78)"><tspan x="0" y="0">PORADENSTVO</tspan></text>
  <text class="st1" transform="translate(469.86 553.58) scale(.94 1)"><tspan x="0" y="0">?</tspan></text>
  <path class="st0" d="M724.51,293.56c-5.8-13.72-12.98-26.94-21.34-39.31-8.28-12.25-17.78-23.77-28.25-34.24-10.47-10.47-21.99-19.97-34.24-28.25-12.37-8.36-25.6-15.54-39.31-21.34-28.54-12.07-58.85-18.19-90.08-18.19s-61.54,6.12-90.08,18.19c-13.72,5.8-26.94,12.98-39.31,21.34-12.25,8.28-23.77,17.78-34.24,28.25-10.47,10.47-19.97,21.99-28.25,34.24-8.36,12.37-15.54,25.6-21.34,39.31-12.07,28.54-18.19,58.85-18.19,90.08s6.12,61.54,18.19,90.08c5.8,13.72,12.98,26.94,21.34,39.31,8.28,12.25,17.78,23.77,28.25,34.24,10.47,10.47,21.99,19.97,34.24,28.25,12.37,8.36,25.6,15.54,39.31,21.34,28.54,12.07,58.85,18.19,90.08,18.19s61.54-6.12,90.08-18.19c13.72-5.8,26.94-12.98,39.31-21.34,12.25-8.28,23.77-17.78,34.24-28.25,10.47-10.47,19.97-21.99,28.25-34.24,8.36-12.37,15.54-25.6,21.34-39.31,12.07-28.54,18.19-58.85,18.19-90.08s-6.12-61.54-18.19-90.08ZM693.31,460.53c-9.95,23.52-24.19,44.65-42.34,62.79s-39.27,32.39-62.79,42.34c-24.34,10.3-50.21,15.52-76.88,15.52s-52.54-5.22-76.88-15.52c-23.52-9.95-44.65-24.19-62.79-42.34-18.15-18.15-32.39-39.27-42.34-62.79-10.3-24.34-15.52-50.21-15.52-76.88s5.22-52.54,15.52-76.88c9.95-23.52,24.19-44.65,42.34-62.79,18.15-18.15,39.27-32.39,62.79-42.34,24.34-10.3,50.21-15.52,76.88-15.52s52.54,5.22,76.88,15.52c23.52,9.95,44.65,24.19,62.79,42.34,18.15,18.15,32.39,39.27,42.34,62.79,10.3,24.34,15.52,50.21,15.52,76.88s-5.22,52.54-15.52,76.88Z"/>
  <path class="st3" d="M561.77,269.4c-18.19,22.35-57.53,72.31-72.3,103.79-5.78,12.32-.6,27.13,11.72,32.92,12.33,5.79,27.02.47,32.77-11.87,14.5-31.09,28.45-93.44,34.34-121.74.79-3.82-4.07-6.13-6.53-3.11Z"/>
  <rect class="st3" x="501.76" y="212.36" width="19.05" height="23.07"/>
  <rect class="st3" x="388.8" y="259.15" width="19.05" height="23.07" transform="translate(-74.73 360.94) rotate(-45)"/>
  <rect class="st3" x="340.01" y="374.11" width="23.07" height="19.05"/>
  <rect class="st3" x="386.8" y="487.07" width="23.07" height="19.05" transform="translate(-234.48 427.11) rotate(-45)"/>
  <rect class="st3" x="614.72" y="485.07" width="19.05" height="23.07" transform="translate(-168.31 586.86) rotate(-45)"/>
  <rect class="st3" x="659.5" y="374.11" width="23.07" height="19.05"/>
  <rect class="st3" x="612.71" y="261.16" width="23.07" height="19.05" transform="translate(-8.56 520.69) rotate(-45)"/>
</svg>