<?xml version="1.0" encoding="UTF-8"?>
<svg id="Layer_1" xmlns="http://www.w3.org/2000/svg" version="1.1" viewBox="0 0 1000 1000">
  <!-- Generator: Adobe Illustrator 29.4.0, SVG Export Plug-In . SVG Version: 2.1.0 Build 152)  -->
  <defs>
    <style>
      .st0 {
        font-family: Poppins-Black, Poppins;
        font-size: 114.58px;
        font-weight: 800;
        letter-spacing: .15em;
      }

      .st0, .st1 {
        fill: #4ab8e9;
      }

      .st2 {
        fill: #a4cc39;
      }
    </style>
  </defs>
  <text class="st0" transform="translate(329.21 796.26)"><tspan x="0" y="0">PARU</tspan></text>
  <g>
    <path class="st2" d="M504.8,546.76c-11.4-8.56-19.58-20.28-23.66-33.9-1.2-4-4.69-6.88-8.84-7.3-4.15-.42-8.14,1.7-10.12,5.38-.7,1.31-1.51,2.57-2.41,3.76-9.71,12.92-28.11,15.53-41.02,5.83-12.92-9.71-15.53-28.11-5.82-41.03,3.42-4.55,2.5-11.01-2.05-14.43-4.55-3.42-11.01-2.5-14.43,2.05-16.54,22-12.08,53.36,9.92,69.89,18.85,14.17,44.57,12.92,61.95-1.57,5.88,10.81,14.03,20.24,24.09,27.8,38.31,28.79,92.9,21.04,121.69-17.27,17.3-23.02,21.75-53.16,12.91-79.83,16.47-.57,32.38-8.43,42.64-22.09,18.38-24.46,13.44-59.31-11.02-77.68-4.55-3.42-11.01-2.5-14.43,2.05-3.42,4.55-2.5,11.01,2.05,14.43,15.37,11.55,18.47,33.44,6.92,48.81-9.21,12.26-25.67,17.09-40.02,11.75-4.14-1.54-8.8-.27-11.58,3.15-2.79,3.42-3.09,8.24-.74,11.98,14.46,23.08,13.18,53.23-3.2,75.03-21.96,29.22-63.6,35.13-92.82,13.17Z"/>
    <path class="st1" d="M722,430.82c15.03-18.22,22.66-41.61,20.89-65.82-3.72-51.13-48.36-89.7-99.5-85.97-25.11,1.83-48.15,13.82-64.1,32.56-10.44-24.2-35.38-40.35-63.11-38.33-32.98,2.4-58.33,29.64-59.05,62.06-2.68-.38-5.41-.47-8.13-.27-21.23,1.55-37.24,20.08-35.69,41.32.38,5.25,4.95,9.2,10.21,8.82,5.25-.38,9.2-4.95,8.82-10.21-.78-10.74,7.31-20.12,18.05-20.9,4.45-.32,8.75.83,12.42,3.34,3.27,2.24,7.58,2.22,10.82-.04,3.25-2.25,4.77-6.28,3.82-10.12-.57-2.32-.96-4.75-1.14-7.24-1.79-24.53,16.72-45.94,41.25-47.73,24.52-1.79,45.92,16.72,47.71,41.25.05.75.1,1.49.1,2.23.05,4.43,3.14,8.25,7.47,9.21,4.33.96,8.75-1.19,10.67-5.18,11.44-23.83,34.92-39.82,61.26-41.74,40.65-2.96,76.12,27.69,79.08,68.33,1.84,25.34-9.25,49.54-29.67,64.74-3.53,2.63-4.81,7.33-3.08,11.39,1.72,4.05,6,6.39,10.34,5.68.94-.16,1.91-.27,2.87-.34,19.34-1.41,36.21,13.19,37.62,32.54,1.41,19.35-13.18,36.23-32.51,37.64-5.25.38-9.2,4.95-8.82,10.21.38,5.25,4.95,9.2,10.21,8.82,29.83-2.17,52.33-28.22,50.16-58.05-1.69-23.22-17.83-42-38.97-48.17Z"/>
    <path class="st1" d="M818.97,424.13c-1.22-16.79-15.88-29.46-32.68-28.24-16.79,1.22-29.46,15.88-28.24,32.68,1.22,16.79,15.88,29.46,32.68,28.24,16.79-1.22,29.46-15.88,28.24-32.67ZM789.34,437.78c-6.3.46-11.8-4.29-12.26-10.6-.46-6.3,4.3-11.8,10.6-12.26,6.3-.46,11.8,4.29,12.26,10.6.46,6.3-4.3,11.8-10.6,12.26Z"/>
    <path class="st2" d="M487.94,456.54c-1.22-16.79-15.88-29.46-32.68-28.24-16.79,1.22-29.46,15.88-28.24,32.68,1.22,16.79,15.88,29.46,32.68,28.24,16.79-1.22,29.46-15.88,28.24-32.67ZM458.31,470.18c-6.3.46-11.8-4.29-12.26-10.6-.46-6.3,4.3-11.8,10.6-12.26,6.3-.46,11.8,4.29,12.26,10.6.46,6.3-4.3,11.8-10.6,12.26Z"/>
    <path class="st1" d="M419.01,329.03c21.46-1.56,37.66-20.3,36.09-41.76-1.56-21.46-20.3-37.65-41.76-36.09-21.47,1.56-37.66,20.3-36.09,41.76,1.56,21.46,20.3,37.66,41.76,36.09ZM414.73,270.21c10.97-.8,20.55,7.48,21.35,18.45.8,10.97-7.48,20.55-18.45,21.35-10.97.8-20.55-7.48-21.35-18.45-.8-10.97,7.48-20.55,18.45-21.35Z"/>
    <path class="st2" d="M557.91,443.62c21.46-1.56,37.66-20.3,36.09-41.76-1.56-21.46-20.3-37.65-41.76-36.09-21.47,1.56-37.66,20.3-36.09,41.76,1.56,21.46,20.3,37.66,41.76,36.09ZM553.62,384.79c10.97-.8,20.55,7.48,21.35,18.45.8,10.97-7.48,20.55-18.45,21.35-10.97.8-20.55-7.48-21.35-18.45-.8-10.97,7.48-20.55,18.45-21.35Z"/>
    <path class="st2" d="M374.09,486.14s0-.09,0-.13l-1.27-14.57-4.9-56.71c-.45-5.25-5.05-9.16-10.33-8.69-5.25.45-9.14,5.08-8.69,10.33l1.31,15.17-88.91,7.45c-2.53.21-4.87,1.42-6.5,3.36-1.64,1.94-2.43,4.45-2.21,6.98l1.2,13.72-73.65,6.11c-5.25.44-9.16,5.05-8.72,10.3.41,4.99,4.59,8.76,9.5,8.76.27,0,.53-.01.8-.03l73.73-6.12,1.21,13.84c.43,4.97,4.6,8.71,9.5,8.71.27,0,.54-.01.81-.03l88.92-7.45,1.32,15.26c.43,4.98,4.6,8.72,9.5,8.72.27,0,.55-.01.83-.03,5.25-.46,9.14-5.08,8.69-10.33l-2.13-24.62ZM274.84,484.78l-2.41-27.56,79.4-6.65,2.08,23.88.32,3.68-79.39,6.65Z"/>
  </g>
</svg>