<?xml version="1.0" encoding="UTF-8"?>
<svg id="Layer_1" xmlns="http://www.w3.org/2000/svg" version="1.1" viewBox="0 0 1000 1000">
  <!-- Generator: Adobe Illustrator 29.4.0, SVG Export Plug-In . SVG Version: 2.1.0 Build 152)  -->
  <defs>
    <style>
      .st0 {
        font-family: Poppins-Black, Poppins;
        font-size: 114.58px;
        font-weight: 800;
        letter-spacing: .15em;
      }

      .st0, .st1 {
        fill: #4ab8e9;
      }

      .st2 {
        fill: #a4cc39;
      }
    </style>
  </defs>
  <text class="st0" transform="translate(298.55 789.92)"><tspan x="0" y="0">TLAK</tspan></text>
  <g>
    <path class="st1" d="M731.58,476.97c15.03-18.22,22.66-41.61,20.89-65.82-3.72-51.13-48.36-89.7-99.5-85.97-25.11,1.83-48.15,13.82-64.1,32.56-10.44-24.2-35.38-40.35-63.11-38.33-32.98,2.4-58.33,29.64-59.05,62.06-2.68-.38-5.41-.47-8.13-.27-21.23,1.55-37.24,20.08-35.69,41.32.38,5.25,4.95,9.2,10.21,8.82,5.25-.38,9.2-4.95,8.82-10.21-.78-10.74,7.31-20.12,18.05-20.9,4.45-.32,8.75.83,12.42,3.34,3.27,2.24,7.58,2.22,10.82-.04,3.25-2.25,4.77-6.28,3.82-10.12-.57-2.32-.96-4.75-1.14-7.24-1.79-24.53,16.72-45.94,41.25-47.73,24.52-1.79,45.92,16.72,47.71,41.25.05.75.1,1.49.1,2.23.05,4.43,3.14,8.25,7.47,9.21,4.33.96,8.75-1.19,10.67-5.18,11.44-23.83,34.92-39.82,61.26-41.74,40.65-2.96,76.12,27.69,79.08,68.33,1.84,25.34-9.25,49.54-29.67,64.74-3.53,2.63-4.81,7.33-3.08,11.39,1.72,4.05,6,6.39,10.34,5.68.94-.16,1.91-.27,2.87-.34,19.34-1.41,36.21,13.19,37.62,32.54,1.41,19.35-13.18,36.23-32.51,37.64-5.25.38-9.2,4.95-8.82,10.21.38,5.25,4.95,9.2,10.21,8.82,29.83-2.17,52.33-28.22,50.16-58.05-1.69-23.22-17.83-42-38.97-48.17Z"/>
    <path class="st1" d="M828.54,470.28c-1.22-16.79-15.88-29.46-32.68-28.24-16.79,1.22-29.46,15.88-28.24,32.68,1.22,16.79,15.88,29.46,32.68,28.24,16.79-1.22,29.46-15.88,28.24-32.67ZM798.92,483.93c-6.3.46-11.8-4.29-12.26-10.6-.46-6.3,4.3-11.8,10.6-12.26,6.3-.46,11.8,4.29,12.26,10.6.46,6.3-4.3,11.8-10.6,12.26Z"/>
    <path class="st1" d="M428.59,375.18c21.46-1.56,37.66-20.3,36.09-41.76-1.56-21.46-20.3-37.65-41.76-36.09-21.47,1.56-37.66,20.3-36.09,41.76,1.56,21.46,20.3,37.66,41.76,36.09ZM424.3,316.36c10.97-.8,20.55,7.48,21.35,18.45.8,10.97-7.48,20.55-18.45,21.35-10.97.8-20.55-7.48-21.35-18.45-.8-10.97,7.48-20.55,18.45-21.35Z"/>
    <path class="st2" d="M632.89,477.86l-229.63,18.86c-5.25.43-9.16,5.04-8.73,10.29.43,5.22,4.99,9.11,10.2,8.73.03,0,.06,0,.09,0l229.63-18.86c5.25-.43,9.16-5.04,8.73-10.29-.43-5.25-5.05-9.18-10.29-8.73Z"/>
    <path class="st2" d="M612.85,562.89l-173.44-23.01c-5.22-.7-10.02,2.98-10.71,8.2-.69,5.22,2.98,10.02,8.2,10.71l173.44,23.01c.66.09,1.32.11,1.96.06,4.41-.32,8.15-3.7,8.75-8.26.69-5.22-2.98-10.02-8.2-10.71Z"/>
    <path class="st2" d="M430.93,467.68c.7-.05,1.4-.18,2.1-.39l167.03-50.97c5.04-1.54,7.88-6.87,6.34-11.91-1.54-5.04-6.87-7.87-11.91-6.34l-167.03,50.97c-5.04,1.54-7.88,6.87-6.34,11.91,1.32,4.34,5.46,7.05,9.81,6.73Z"/>
    <path class="st2" d="M383.66,532.29s0-.09,0-.13l-1.27-14.57-4.9-56.71c-.45-5.25-5.05-9.16-10.33-8.69-5.25.45-9.14,5.08-8.69,10.33l1.31,15.17-88.91,7.45c-2.53.21-4.87,1.42-6.5,3.36-1.64,1.94-2.43,4.45-2.21,6.98l1.2,13.72-73.65,6.11c-5.25.44-9.16,5.05-8.72,10.3.41,4.99,4.59,8.76,9.5,8.76.27,0,.53-.01.8-.03l73.73-6.12,1.21,13.84c.43,4.97,4.6,8.71,9.5,8.71.27,0,.54-.01.81-.03l88.92-7.45,1.32,15.26c.43,4.98,4.6,8.72,9.5,8.72.27,0,.55-.01.83-.03,5.25-.46,9.14-5.08,8.69-10.33l-2.13-24.62ZM284.42,530.93l-2.41-27.56,79.4-6.65,2.08,23.88.32,3.68-79.39,6.65Z"/>
  </g>
</svg>