<?xml version="1.0" encoding="UTF-8"?>
<svg id="Layer_1" xmlns="http://www.w3.org/2000/svg" version="1.1" viewBox="0 0 1000 1000">
  <!-- Generator: Adobe Illustrator 29.5.0, SVG Export Plug-In . SVG Version: 2.1.0 Build 137)  -->
  <defs>
    <style>
      .st0 {
        fill: #a3cc3a;
      }

      .st1 {
        fill: #4ab7e8;
        font-family: DunbarText-ExtraBold, 'Dunbar Text';
        font-size: 122.15px;
        font-weight: 700;
      }

      .st2 {
        fill: #48b7e8;
      }
    </style>
  </defs>
  <text class="st1" transform="translate(246.7 855.71)"><tspan x="0" y="0">MONTÁŽ </tspan></text>
  <g id="CUSTOM-Group">
    <path class="st2" d="M658.68,458.51l-76.7-76.7c-.93-.93-1.94-1.78-2.99-2.54l20.2-20.2c18.1,3.22,36.9-2.58,50.02-15.7,16.94-16.94,21.39-42.84,11.07-64.45-2.41-5.03-9.08-6.17-13.02-2.23-4.8,4.8-.61.73-24.19,23.41h-10.66v-10.66c22.68-23.58,18.61-19.38,23.41-24.19,3.95-3.95,2.8-10.62-2.23-13.02-21.61-10.32-47.51-5.88-64.45,11.06-13.12,13.12-18.92,31.92-15.7,50.02l-19.97,19.97-6.42-6.42c-3.16-3.16-8.28-3.16-11.44,0l-5.72,5.72-41.1-41.1v-19.53c0-3.48-2.23-6.57-5.53-7.67l-51.48-17.16c-2.91-.97-6.11-.21-8.28,1.95l-11.44,11.44c-2.17,2.17-2.92,5.37-1.95,8.28l17.16,51.48c1.1,3.3,4.19,5.53,7.67,5.53h19.53l41.1,41.1-5.72,5.72c-3.16,3.16-3.16,8.28,0,11.44l6.42,6.42-19.97,19.97c-18.11-3.22-36.9,2.59-50.02,15.7-22.08,22.08-22.08,58,0,80.08,22.08,22.08,58,22.08,80.08,0,13.12-13.12,18.92-31.92,15.7-50.02l20.2-20.2c.76,1.06,1.61,2.06,2.54,2.99l76.7,76.7c9.46,9.46,24.86,9.46,34.32,0,12.89-12.88,13.58-13.58,22.88-22.88,9.46-9.46,9.46-24.86,0-34.32ZM568,321.62c2.04-2.04,2.84-5.02,2.1-7.81-3.72-13.93.29-28.9,10.47-39.08,9.2-9.19,22.08-13.24,34.51-11.42l-16.6,17.25c-1.45,1.51-2.26,3.52-2.26,5.61v22.01c0,4.47,3.62,8.09,8.09,8.09h22.01c2.09,0,4.1-.81,5.61-2.26l17.25-16.6c1.82,12.43-2.22,25.32-11.42,34.51-10.18,10.18-25.15,14.19-39.08,10.47-2.79-.74-5.76.05-7.81,2.09l-28.68,28.68c-7.29-3.09-12.7-9.59-14.3-17.57-.61-3.06-1.07-6.3-3.52-10.37l23.62-23.61ZM443.53,312c-1.52-1.52-3.57-2.37-5.72-2.37h-17.05l-13.74-41.21,4.37-4.37,41.2,13.73v17.05c0,2.15.85,4.2,2.37,5.72l43.47,43.47-11.44,11.44-43.47-43.47ZM487.48,447.91c-2.04,2.04-2.84,5.02-2.1,7.81,3.72,13.93-.29,28.9-10.47,39.08-15.77,15.77-41.43,15.77-57.2,0-15.77-15.77-15.77-41.43,0-57.2,10.18-10.18,25.15-14.19,39.08-10.47,2.79.75,5.77-.05,7.81-2.09l23.62-23.62c4.04,2.42,7.22,2.89,10.37,3.52,7.99,1.6,14.48,7.01,17.57,14.3l-28.68,28.68ZM647.24,481.39l-5.72,5.72-74.44-74.44c-3.16-3.16-8.28-3.16-11.44,0-3.16,3.16-3.16,8.28,0,11.44l74.44,74.44-5.72,5.72c-3.16,3.15-8.29,3.15-11.44,0l-76.7-76.7c-2.03-2.03-2.18-3.99-2.74-6.78-3.21-16.06-15.67-28.52-31.73-31.73-2.78-.56-4.74-.71-6.78-2.74l-7.98-7.98,34.32-34.32,7.98,7.98c2.04,2.04,2.19,4.01,2.74,6.78,3.21,16.06,15.67,28.52,31.73,31.73,2.78.56,4.74.71,6.78,2.74l76.7,76.7c3.15,3.15,3.15,8.29,0,11.44Z"/>
    <path class="st2" d="M463.47,449.04c-9.48-9.48-24.83-9.48-34.32,0-9.46,9.46-9.46,24.86,0,34.32,9.48,9.48,24.83,9.48,34.32,0,9.46-9.46,9.46-24.86,0-34.32ZM452.03,471.91c-3.16,3.16-8.28,3.16-11.44,0-3.15-3.15-3.15-8.29,0-11.44,3.16-3.16,8.28-3.16,11.44,0,3.15,3.15,3.15,8.29,0,11.44Z"/>
  </g>
  <path class="st0" d="M737.08,293.56c-5.8-13.72-12.98-26.94-21.34-39.31-8.28-12.25-17.78-23.77-28.25-34.24s-21.99-19.97-34.24-28.25c-12.37-8.36-25.6-15.54-39.31-21.34-28.54-12.07-58.85-18.19-90.08-18.19s-61.54,6.12-90.08,18.19c-13.72,5.8-26.94,12.98-39.31,21.34-12.25,8.28-23.77,17.78-34.24,28.25-10.47,10.47-19.97,21.99-28.25,34.24-8.36,12.37-15.54,25.6-21.34,39.31-12.07,28.54-18.19,58.85-18.19,90.08s6.12,61.54,18.19,90.08c5.8,13.72,12.98,26.94,21.34,39.31,8.28,12.25,17.78,23.77,28.25,34.24,10.47,10.47,21.99,19.97,34.24,28.25,12.37,8.36,25.6,15.54,39.31,21.34,28.54,12.07,58.85,18.19,90.08,18.19s61.54-6.12,90.08-18.19c13.72-5.8,26.94-12.98,39.31-21.34,12.25-8.28,23.77-17.78,34.24-28.25s19.97-21.99,28.25-34.24c8.36-12.37,15.54-25.6,21.34-39.31,12.07-28.54,18.19-58.85,18.19-90.08s-6.12-61.54-18.19-90.08ZM705.88,460.53c-9.95,23.52-24.19,44.65-42.34,62.79-18.15,18.15-39.27,32.39-62.79,42.34-24.34,10.3-50.21,15.52-76.88,15.52s-52.54-5.22-76.88-15.52c-23.52-9.95-44.65-24.19-62.79-42.34-18.15-18.15-32.39-39.27-42.34-62.79-10.3-24.34-15.52-50.21-15.52-76.88s5.22-52.54,15.52-76.88c9.95-23.52,24.19-44.65,42.34-62.79,18.15-18.15,39.27-32.39,62.79-42.34,24.34-10.3,50.21-15.52,76.88-15.52s52.54,5.22,76.88,15.52c23.52,9.95,44.65,24.19,62.79,42.34,18.15,18.15,32.39,39.27,42.34,62.79,10.3,24.34,15.52,50.21,15.52,76.88s-5.22,52.54-15.52,76.88Z"/>
</svg>