<?xml version="1.0" encoding="UTF-8"?>
<svg id="Layer_1" xmlns="http://www.w3.org/2000/svg" version="1.1" viewBox="0 0 1000 1000">
  <!-- Generator: Adobe Illustrator 29.5.0, SVG Export Plug-In . SVG Version: 2.1.0 Build 137)  -->
  <defs>
    <style>
      .st0 {
        fill: #a3cc3a;
      }

      .st1 {
        fill: #4ab7e8;
        font-family: DunbarText-ExtraBold, 'Dunbar Text';
        font-size: 122.15px;
        font-weight: 700;
      }

      .st2 {
        fill: #48b7e8;
      }
    </style>
  </defs>
  <text class="st1" transform="translate(244.6 852.78)"><tspan x="0" y="0">ÚDRŽBA </tspan></text>
  <g>
    <g>
      <path class="st0" d="M512.26,280.51v-21.09c-66.76,0-121.07,54.3-121.07,121.05s54.31,121.07,121.07,121.07v-21.09c-55.13,0-99.98-44.85-99.98-99.98s44.85-99.96,99.98-99.96Z"/>
      <path class="st0" d="M365.19,275.92l28.68,24.06c1.98,1.66,4.38,2.47,6.77,2.47,3.01,0,6-1.28,8.08-3.77,3.74-4.46,3.16-11.11-1.3-14.86l-28.68-24.06c-4.46-3.75-11.11-3.16-14.86,1.3-3.74,4.46-3.16,11.11,1.3,14.86Z"/>
      <path class="st0" d="M378.71,381.14c0-5.82-4.72-10.54-10.54-10.54h-37.44c-5.82,0-10.54,4.72-10.54,10.54s4.72,10.54,10.54,10.54h37.44c5.82,0,10.54-4.72,10.54-10.54Z"/>
      <path class="st0" d="M424.54,479.41c-4.46-3.75-11.11-3.16-14.86,1.3l-24.06,28.68c-3.74,4.46-3.16,11.11,1.3,14.86,1.98,1.66,4.38,2.47,6.77,2.47,3.01,0,6-1.28,8.08-3.77l24.06-28.68c3.74-4.46,3.16-11.11-1.3-14.86Z"/>
      <path class="st0" d="M447.66,255.19c1.6,4.21,5.61,6.79,9.85,6.79,1.25,0,2.52-.22,3.76-.69,5.44-2.08,8.17-8.17,6.09-13.61l-5.24-13.73c-2.07-5.44-8.17-8.17-13.61-6.09-5.44,2.08-8.17,8.17-6.09,13.61l5.24,13.73Z"/>
      <path class="st0" d="M358.49,340.82l13.88,4.81c1.14.4,2.31.58,3.45.58,4.37,0,8.45-2.74,9.96-7.09,1.91-5.5-1.01-11.51-6.51-13.42l-13.88-4.81c-5.5-1.91-11.51,1.01-13.42,6.51-1.91,5.5,1.01,11.51,6.51,13.42Z"/>
      <path class="st0" d="M387.14,426.86c-2.08-5.44-8.17-8.17-13.61-6.09l-13.73,5.24c-5.44,2.08-8.17,8.17-6.09,13.61,1.6,4.2,5.61,6.79,9.85,6.79,1.25,0,2.52-.22,3.76-.69l13.73-5.24c5.44-2.08,8.17-8.17,6.09-13.61Z"/>
      <path class="st0" d="M464.97,502.34c-5.5-1.91-11.51,1.01-13.42,6.51l-4.81,13.88c-1.91,5.5,1.01,11.51,6.51,13.42,1.14.4,2.31.58,3.45.58,4.37,0,8.45-2.73,9.96-7.09l4.81-13.88c1.91-5.5-1.01-11.51-6.51-13.42Z"/>
    </g>
    <path class="st2" d="M664.49,449.01l-26.68-15.4,19.12-3.41c6.46-1.15,10.76-7.32,9.61-13.78-1.15-6.46-7.32-10.77-13.78-9.61l-46.9,8.35-24.39-14.08c2.41-6.62,3.67-13.65,3.67-20.78,0-6.17-.96-12.3-2.78-18.15l23.5-13.57,46.91,8.36c.7.13,1.41.19,2.1.19,5.65,0,10.66-4.04,11.68-9.8,1.15-6.46-3.15-12.63-9.61-13.78l-19.13-3.41,26.69-15.41c5.68-3.28,7.63-10.55,4.35-16.23-3.28-5.68-10.55-7.63-16.23-4.35l-26.69,15.41,6.61-18.27c2.23-6.17-.96-12.98-7.13-15.22-6.17-2.24-12.98.96-15.22,7.13l-16.22,44.8-23.03,13.3c-8.87-10.58-21.09-17.82-34.63-20.52v-29.21l30.69-36.44c4.23-5.02,3.58-12.51-1.43-16.74-5.02-4.23-12.51-3.58-16.74,1.44l-12.51,14.86v-30.81c0-6.56-5.32-11.88-11.88-11.88s-11.88,5.32-11.88,11.88v63.16c0,.07,0,.15,0,.22v186.12c0,.07,0,.15,0,.22v63.15c0,6.56,5.32,11.88,11.88,11.88s11.88-5.32,11.88-11.88v-30.8l12.51,14.86c2.35,2.79,5.71,4.23,9.09,4.23,2.7,0,5.42-.92,7.65-2.79,5.02-4.23,5.66-11.72,1.43-16.74l-30.69-36.44v-29.18c12.65-2.49,24.1-8.93,32.82-18.46l24.83,14.34,16.22,44.81c1.75,4.83,6.31,7.84,11.17,7.84,1.34,0,2.71-.23,4.04-.71,6.17-2.23,9.36-9.05,7.13-15.22l-6.62-18.28,26.69,15.41c1.87,1.08,3.91,1.59,5.93,1.59,4.11,0,8.1-2.13,10.3-5.94,3.28-5.68,1.33-12.95-4.35-16.23ZM536.31,415.3v-69.98c8.68,2.95,16.11,9.08,20.63,17.42,2.94,5.41,4.43,11.32,4.43,17.55,0,6.85-1.89,13.55-5.45,19.35-4.63,7.51-11.58,12.95-19.61,15.67Z"/>
  </g>
  <path class="st0" d="M720.56,293.56c-5.8-13.72-12.98-26.94-21.34-39.31-8.28-12.25-17.78-23.77-28.25-34.24s-21.99-19.97-34.24-28.25c-12.37-8.36-25.6-15.54-39.31-21.34-28.54-12.07-58.85-18.19-90.08-18.19s-61.54,6.12-90.08,18.19c-13.72,5.8-26.94,12.98-39.31,21.34-12.25,8.28-23.77,17.78-34.24,28.25-10.47,10.47-19.97,21.99-28.25,34.24-8.36,12.37-15.54,25.6-21.34,39.31-12.07,28.54-18.19,58.85-18.19,90.08s6.12,61.54,18.19,90.08c5.8,13.72,12.98,26.94,21.34,39.31,8.28,12.25,17.78,23.77,28.25,34.24,10.47,10.47,21.99,19.97,34.24,28.25,12.37,8.36,25.6,15.54,39.31,21.34,28.54,12.07,58.85,18.19,90.08,18.19s61.54-6.12,90.08-18.19c13.72-5.8,26.94-12.98,39.31-21.34,12.25-8.28,23.77-17.78,34.24-28.25s19.97-21.99,28.25-34.24c8.36-12.37,15.54-25.6,21.34-39.31,12.07-28.54,18.19-58.85,18.19-90.08s-6.12-61.54-18.19-90.08ZM689.36,460.53c-9.95,23.52-24.19,44.65-42.34,62.79-18.15,18.15-39.27,32.39-62.79,42.34-24.34,10.3-50.21,15.52-76.88,15.52s-52.54-5.22-76.88-15.52c-23.52-9.95-44.65-24.19-62.79-42.34-18.15-18.15-32.39-39.27-42.34-62.79-10.3-24.34-15.52-50.21-15.52-76.88s5.22-52.54,15.52-76.88c9.95-23.52,24.19-44.65,42.34-62.79,18.15-18.15,39.27-32.39,62.79-42.34,24.34-10.3,50.21-15.52,76.88-15.52s52.54,5.22,76.88,15.52c23.52,9.95,44.65,24.19,62.79,42.34,18.15,18.15,32.39,39.27,42.34,62.79,10.3,24.34,15.52,50.21,15.52,76.88s-5.22,52.54-15.52,76.88Z"/>
</svg>