<?xml version="1.0" encoding="UTF-8"?>
<svg id="Layer_1" xmlns="http://www.w3.org/2000/svg" version="1.1" xmlns:xlink="http://www.w3.org/1999/xlink" viewBox="0 0 1000 1000">
  <!-- Generator: Adobe Illustrator 29.4.0, SVG Export Plug-In . SVG Version: 2.1.0 Build 152)  -->
  <defs>
    <style>
      .st0 {
        fill: #fff;
      }

      .st1 {
        fill: none;
      }

      .st2 {
        clip-path: url(#clippath-1);
      }

      .st3 {
        clip-path: url(#clippath);
      }
    </style>
    <clipPath id="clippath">
      <rect class="st1" x="22" y="20.57" width="951.25" height="951.25"/>
    </clipPath>
    <clipPath id="clippath-1">
      <rect class="st1" x="22" y="20.57" width="951.25" height="951.25"/>
    </clipPath>
  </defs>
  <g class="st3">
    <g class="st2">
      <path class="st0" d="M246.59,536.23c3.25,3.77,7.31,6.43,12.2,8.02,4.89,1.58,10.4,1.95,16.54,1.08,5.52-.77,11.14-2.61,16.88-5.52,5.73-2.9,11.28-6.93,16.63-12.05,5.36-5.12,10.46-11.38,15.33-18.79,4.86-7.4,9.24-16,13.13-25.78l6.6-17.71c2.17-6.14,4.03-11.99,5.58-17.55,1.54-5.57,2.25-10.41,2.12-14.52-.12-4.11-1.26-7.27-3.43-9.48-2.16-2.21-5.87-2.94-11.13-2.21l-15.34,2.15c-5.89.83-10.46,3.33-13.72,7.51-3.27,4.19-5.37,8.62-6.3,13.28-.94,4.67-.71,8.77.66,12.3,1.38,3.54,3.81,5.06,7.32,4.57,1.62-.23,2.72-.38,3.29-.46.56-.09,1.01-.19,1.33-.32.33-.13.74-.22,1.24-.3.5-.06,1.63-.23,3.38-.47-1.1,2.75-1.93,4.85-2.5,6.31-.56,1.46-1.07,2.79-1.54,3.98-.46,1.2-.98,2.53-1.54,3.99-.56,1.46-1.32,3.46-2.28,6.03-3.67,9.1-8.07,16.04-13.17,20.81-5.11,4.77-10.66,7.58-16.66,8.42-4.38.61-7.6-.52-9.66-3.39-2.07-2.87-2.74-7.03-2.01-12.48.53-3.97,1.82-8.6,3.89-13.91l35.86-90.34c1.87-4.8,3.99-8.95,6.37-12.44,2.36-3.5,4.78-6.39,7.24-8.68,2.46-2.29,4.84-4.04,7.15-5.26,2.31-1.21,4.41-1.95,6.29-2.21,4.34-.28,7.15.74,8.44,3.07,1.28,2.34,1.89,4.72,1.81,7.16-1.66,4.12-2.19,7.68-1.62,10.68.58,2.99,1.77,5.3,3.57,6.91,1.8,1.62,4.07,2.43,6.81,2.45,2.75.02,5.5-.89,8.24-2.74,2.75-1.85,5.24-4.66,7.46-8.46,2.21-3.79,3.79-8.76,4.74-14.89.99-6.46.91-12.52-.24-18.2-1.13-5.68-3.19-10.53-6.14-14.58-2.96-4.04-6.8-7.03-11.5-8.96-4.72-1.93-10.13-2.48-16.26-1.62-4.62.64-9.55,2.19-14.79,4.62-5.24,2.44-10.48,6.01-15.7,10.71-5.24,4.7-10.26,10.64-15.09,17.79-4.83,7.15-9.12,15.71-12.91,25.63l-37.56,96.41c-3.08,8.38-5.15,16.44-6.18,24.2-1.06,7.93-.93,14.84.36,20.74,1.3,5.89,3.57,10.72,6.82,14.48"/>
      <path class="st0" d="M393.22,582.21c1.48-1.54,3.01-2.72,4.58-3.58,1.56-.85,2.89-1.28,3.99-1.29,2.81-.09,5.19.98,7.13,3.26,1.95,2.29,3.6,5.56,4.97,9.82,1.32,4.97,3.6,8.01,6.83,9.13,3.23,1.13,6.39.66,9.49-1.39,3.09-2.05,5.64-5.39,7.66-10.03,2.01-4.64,2.52-10.24,1.53-16.81-.84-4.87-2.28-9.35-4.32-13.42-2.04-4.07-4.6-7.46-7.68-10.16-3.09-2.7-6.64-4.63-10.66-5.8-4.01-1.17-8.36-1.38-13.03-.63-4.55.72-9.11,2.37-13.69,4.91-4.59,2.54-8.87,5.86-12.87,9.95-3.99,4.09-7.6,8.89-10.81,14.42-3.21,5.51-5.74,11.7-7.56,18.54-.76,2.7-1.35,5.36-1.79,7.93-.44,2.57-.72,5.08-.85,7.51-.31,5.74.05,10.99,1.08,15.75,1.03,4.75,2.43,9.28,4.21,13.55,1.78,4.3,3.85,8.41,6.2,12.34,2.34,3.95,4.7,7.79,7.05,11.56,4.17,6.41,7.73,12.73,10.7,18.99,2.95,6.25,4.22,13.3,3.81,21.13-.28,5.23-1.26,10.09-2.97,14.58-1.7,4.5-3.82,8.37-6.37,11.63-2.55,3.26-5.38,5.91-8.46,7.95-3.1,2.05-6.12,3.3-9.07,3.78-3.32.54-6.38.34-9.19-.6-2.82-.93-5.24-2.48-7.25-4.67-2.02-2.17-3.52-5-4.48-8.46-.98-3.47-1.34-7.55-1.09-12.25.67-5.62.49-10.22-.54-13.76-1.03-3.55-2.57-6.1-4.62-7.68-2.05-1.56-4.4-2.18-7.03-1.85-2.64.34-5.13,1.51-7.49,3.52-2.37,2.02-4.41,4.85-6.12,8.49-1.72,3.64-2.7,7.89-2.96,12.76-.81,10.49.02,19.67,2.46,27.57,2.44,7.89,5.93,14.44,10.47,19.67,4.54,5.24,9.95,8.93,16.23,11.11,6.28,2.19,12.92,2.73,19.93,1.61,7.37-1.18,14.54-4.24,21.5-9.14,6.96-4.91,13.22-11.08,18.8-18.53,5.58-7.46,10.13-15.86,13.68-25.23,3.54-9.37,5.58-19.1,6.12-29.19.36-6.79-.01-13.03-1.11-18.73-1.09-5.68-2.68-10.95-4.73-15.8-2.06-4.85-4.38-9.4-6.95-13.64-2.58-4.24-5.16-8.4-7.75-12.48l-2.03-3.04c-3.28-4.82-5.97-9.79-8.07-14.89-2.11-5.1-3.03-10.08-2.77-14.95.14-2.79.8-5.35,1.96-7.7,1.15-2.34,2.48-4.27,3.96-5.81"/>
      <path class="st0" d="M907.36,383.67c-1.4-4.41-5.45-7.4-10.08-7.4h-126.76c-5.83,0-10.56,4.74-10.56,10.57s4.73,10.56,10.56,10.56h93.26l-183.82,128.7c-4.78,3.35-5.94,9.93-2.6,14.71,3.35,4.78,9.93,5.95,14.72,2.6l211.26-147.91c3.8-2.66,5.42-7.42,4.03-11.83"/>
      <path class="st0" d="M706.49,643.82c-.67-1.83-3.44-6.95-4.2-7.95-1.76-2.3-4.04-3.6-6.83-3.9-2.79-.29-5.64.51-8.55,2.4-2.91,1.88-4.91,4.99-5.99,9.32-1.87,6.01-3.87,11.58-6.01,16.71-2.14,5.13-4.3,9.6-6.47,13.44-2.17,3.83-4.32,6.93-6.44,9.28-2.13,2.37-4.17,3.72-6.13,4.05-1.35.23-2.31-.17-2.89-1.23-.58-1.05-.85-2.42-.81-4.12.04-1.7.33-3.44.87-5.21l11.81-39.82c.67-2.42,1.18-4.7,1.54-6.83.36-2.14.57-4.21.62-6.21.15-5.56-.93-10.09-3.21-13.62-2.28-3.52-5.09-6.38-8.44-8.57-3.35-2.19-6.83-3.86-10.46-5-3.62-1.15-6.7-1.96-9.24-2.44.93-3.39,1.17-6.54.7-9.45-.47-2.92-1.41-5.44-2.81-7.58-1.41-2.14-3.19-3.75-5.36-4.84-2.16-1.09-4.46-1.42-6.91-1.01-3.79.65-7.09,2.52-9.92,5.62-2.81,3.1-4.77,6.81-5.85,11.15-.66,1.81-1.17,3.73-1.51,5.79-.36,2.07-.56,3.94-.61,5.64-.16,6.17,1.23,11.39,4.15,15.64,0,0-9.4,45.19-22.68,66.67-3.68,5.97-8.38,10.71-12.53,11.96-3.3.97-4.91-.46-4.8-4.34.04-1.7.4-4.03,1.09-7.01l22.46-80.42c1.75-6.36,1.86-11.11.37-14.28-1.49-3.16-3.68-5-6.59-5.52-2.9-.52-6.09.25-9.6,2.28-3.51,2.05-6.42,5.11-8.7,9.17-1.79-1-4.45-1.79-7.95-2.36-3.5-.57-7.81-.09-12.95,1.44-6.11,1.83-12.07,5.75-17.86,11.79-5.79,6.03-10.15,13.85-13.07,23.48l-11.2,39.65c-6.57,18.38-10.95,26.32-23.05,42.81-5.27,7.17-11.42,10.47-16.8,11.39-3.3.57-5.87-.07-7.7-1.91-1.85-1.84-2.72-4.31-2.64-7.4.05-2.01.35-3.77.87-5.24l19.02-64.73,11.92-2.05c4.15-.71,7.49-2.7,10.01-5.99,2.52-3.27,4.03-6.68,4.56-10.23.52-3.54.02-6.6-1.5-9.19-1.52-2.58-4.23-3.53-8.13-2.87l-8.26,1.42,13.24-45.59c1.21-4.66.86-8.48-1.07-11.46-1.93-2.96-4.47-4.68-7.62-5.13-3.15-.46-6.44.52-9.84,2.95-3.41,2.43-5.93,6.7-7.54,12.82l-15.2,51.22-7.65,1.31c-4.64.8-8.1,2.82-10.38,6.05-2.28,3.23-3.61,6.6-4.01,10.13-.39,3.52.1,6.59,1.5,9.19,1.39,2.61,3.43,3.67,6.12,3.21l6.05-1.03c-1.47,5.16-2.86,9.97-4.18,14.42-1.33,4.45-2.62,8.85-3.89,13.22-1.26,4.36-2.55,8.77-3.87,13.23-1.33,4.45-2.72,9.26-4.19,14.42v-.23c-1.59,5.81-2.45,11.1-2.58,15.89-.15,5.86.68,10.94,2.5,15.24,1.83,4.29,4.3,7.79,7.43,10.48,3.13,2.68,6.81,4.51,11.01,5.48,4.21.97,8.7,1.05,13.46.22,11.85-2.03,22.56-9.02,32.12-20.95,1.26-1.57,2.47-3.21,3.66-4.92,1.17,2.42,2.61,4.5,4.33,6.21,2.42,2.43,5.36,4.05,8.79,4.87,3.43.81,7.17.62,11.21-.58,4.15-1.24,8.3-3.52,12.45-6.83,4.15-3.31,7.93-7.32,11.32-12.01,1.27,2.54,3.01,4.4,5.22,5.58,2.21,1.19,4.52,1.92,6.95,2.19,2.42.28,4.75.23,7.01-.13,2.26-.36,4.11-.77,5.58-1.2,3.79-1.13,7.71-3.03,11.79-5.71,4.07-2.68,8.11-6.26,12.11-10.75,3.99-4.49,7.91-10.11,11.72-16.86,3.81-6.74,7.42-14.77,10.81-24.07.79-2.38,1.48-4.39,2.07-6.03.59-1.63,1.28-3.8,2.07-6.5.26-.81,5.65-23.69,5.65-23.69,1.45.36,2.99.7,4.63,1.04,1.64.34,3.05.97,4.24,1.93,1.19.95,2.04,2.26,2.55,3.94.5,1.68.36,3.97-.46,6.87l-8.81,29.62c-1.6,5.65-2.46,10.72-2.58,15.2-.13,5.07.48,9.52,1.84,13.32,1.36,3.81,3.29,6.9,5.79,9.29,2.49,2.39,5.39,4.1,8.72,5.13,3.32,1.02,6.87,1.22,10.66.56,10.03-1.72,19.48-8.64,28.38-20.77,4.78-6.52,9.11-14.3,13.03-23.25l58.35,159.16-144.7-103.37c-4.75-3.4-11.35-2.29-14.75,2.46-3.38,4.75-2.29,11.34,2.46,14.74l172.54,123.27c3.76,2.68,8.86,2.6,12.54-.2,3.68-2.81,5.11-7.69,3.52-12.04l-77.47-211.3ZM552.19,649.67l-7.22,25.88c-1.46,4.74-3.01,8.63-4.67,11.65-1.66,3.03-3.23,5.38-4.73,7.05-1.5,1.68-2.89,2.86-4.19,3.56-1.29.69-2.36,1.01-3.2.95-1.46-.02-2.5-.59-3.14-1.71-.64-1.11-.99-2.47-1.07-4.06-.09-1.58.02-3.23.31-4.93.28-1.7.62-3.22,1.02-4.57l10.47-38.83c1.6-5.4,3.18-9.43,4.77-12.14,1.59-2.69,3.06-4.59,4.42-5.69,1.37-1.09,2.5-1.66,3.42-1.71.91-.04,1.42,0,1.54.11.13-.03.6.09,1.45.38.84.29,1.6,1.21,2.3,2.77.68,1.56,1.01,4,.99,7.31-.03,3.3-.84,7.96-2.45,13.97"/>
      <path class="st0" d="M335.64,782.46c-3.24-4.85-9.8-6.17-14.66-2.93l-78.75,52.52,94.53-258.44c2-5.48-.82-11.54-6.3-13.55-5.47-2.01-11.54.81-13.54,6.3l-105.63,288.78c-1.57,4.29-.2,9.11,3.39,11.93,3.58,2.82,8.59,3.03,12.39.49l105.63-70.43c4.85-3.24,6.17-9.8,2.93-14.66"/>
      <path class="st0" d="M229.93,477.34c3.3-4.81,2.07-11.38-2.74-14.68l-95.13-65.24h120.84c5.83,0,10.57-4.73,10.57-10.56s-4.74-10.57-10.57-10.57H97.97c-4.62,0-8.72,3.03-10.09,7.44-1.36,4.42.31,9.22,4.12,11.84l123.24,84.52c4.82,3.3,11.39,2.08,14.69-2.74"/>
      <path class="st0" d="M404.28,336.93c5.5,1.96,11.54-.9,13.5-6.4l78.15-218.86,78.03,215.38c1.99,5.49,8.04,8.32,13.53,6.34,5.48-1.99,8.32-8.05,6.33-13.53l-88.02-243c-1.52-4.19-5.49-6.98-9.96-6.97-4.46,0-8.42,2.81-9.92,7.01l-88.04,246.52c-1.96,5.49.9,11.54,6.4,13.5"/>
      <path class="st0" d="M591.72,515.57c12.69-5.78.23-.72,19.84-8.68,9.01-3.36,17.79-5.91,25.87-7.87,17.32-3.85,34.18-5.4,46.22-6.93,54.34-6.28,70.12-44.61,68.98-71.23-.05-18.87-5.48-33.35-5.71-34.04h0s0-.03,0-.03c-11.36-15.3-24.46-2.3-22.36-3.89-2.91,2.22-4.95,5.52-6.14,9.93-4.28,14.21-8.83,24.73-13.63,31.54-4.8,6.82-9.3,10.58-13.46,11.3-3.34.57-4.95-1.17-4.85-5.23.03-1.21.38-3.14,1.04-5.8l15.44-52.75-.19.26c1.44-4.89,2.2-9.14,2.3-12.76.12-4.51-.49-8.52-1.82-12.04-1.33-3.51-3.15-6.38-5.48-8.6-2.31-2.23-5.06-3.81-8.24-4.77-3.18-.95-6.56-1.12-10.13-.5-6.68,1.14-12.44,3.84-17.3,8.09-.54-1.98-1.85-3.4-3.89-4.24-2.05-.84-4.31-1.01-6.75-.52-2.44.5-4.76,1.68-6.94,3.54-2.18,1.87-3.68,4.42-4.47,7.68,0,0-15.3,65.91-32.6,89.44-.34.48-.58.99-.83,1.5-.63.66-1.26,1.34-1.92,1.96-3.83,3.66-7.82,6.55-11.97,8.68-4.15,2.14-8.13,3.53-11.95,4.19-6.56,1.12-11.7.21-15.41-2.75-3.73-2.95-5.52-7.06-5.38-12.33.06-2.26.41-4.42,1.05-6.47l1.54-4.53c2.57,1.65,5.41,2.81,8.54,3.47,3.13.66,6.48.68,10.06.07,4.05-.7,7.97-2.16,11.77-4.38,3.81-2.22,7.28-5.03,10.46-8.42,3.17-3.39,5.97-7.32,8.4-11.77,2.43-4.46,4.3-9.35,5.64-14.67,1.07-4.68,1.65-8.89,1.75-12.66.15-5.42-.53-10.28-2.01-14.59-1.5-4.32-3.66-7.91-6.48-10.79-2.84-2.89-6.32-4.95-10.44-6.18-4.12-1.24-8.68-1.44-13.68-.58-3.93.68-7.86,2.07-11.77,4.15-3.91,2.1-7.57,4.9-10.99,8.4-3.4,3.51-6.48,7.62-9.22,12.37-2.73,4.74-4.95,10.02-6.64,15.85l-11.55,40.4c-1.44,5.17-1.97,8.48-4.36,13.56-2.62,5.56-6.84,9.64-10.66,13.29-3.83,3.65-7.83,6.54-11.97,8.68-4.15,2.14-8.13,3.53-11.95,4.18-6.56,1.13-11.69.21-15.41-2.75-3.72-2.95-5.51-7.06-5.38-12.32.06-2.26.41-4.42,1.05-6.48l1.54-4.53c2.56,1.66,5.42,2.81,8.54,3.48,3.12.66,6.48.68,10.05.07,4.05-.7,7.98-2.16,11.77-4.39,3.79-2.22,7.28-5.03,10.45-8.42,3.17-3.38,5.97-7.32,8.41-11.78,2.43-4.46,4.3-9.34,5.62-14.66,1.08-4.68,1.66-8.89,1.75-12.65.15-5.42-.53-10.29-2.02-14.6-1.48-4.31-3.65-7.91-6.48-10.79-2.83-2.89-6.32-4.94-10.43-6.18-4.12-1.24-8.68-1.44-13.69-.57-3.93.67-7.86,2.06-11.77,4.15-3.91,2.1-7.57,4.9-10.99,8.41-3.41,3.5-6.49,7.62-9.22,12.36-2.73,4.75-4.95,10.03-6.64,15.86l-7.3,25.56c-6.28,16.37-3.25,8.48-10.23,24.59-2.15,4.97-4.7,9.36-6.81,13.1-2.11,3.73-4.21,6.75-6.29,9.05-2.07,2.3-4.07,3.62-5.98,3.95-1.31.22-2.24-.17-2.81-1.2-.57-1.03-.83-2.37-.79-4.02.05-1.66.33-3.35.85-5.09l11.52-38.82c.65-2.36,1.15-4.58,1.51-6.66.34-2.09.54-4.11.6-6.06.13-5.42-.9-9.85-3.12-13.28-2.23-3.44-4.98-6.23-8.24-8.36-3.27-2.14-6.67-3.76-10.19-4.87-3.53-1.12-6.54-1.91-9.01-2.39.91-3.3,1.14-6.38.68-9.22-.46-2.84-1.38-5.3-2.75-7.39-1.37-2.09-3.11-3.66-5.21-4.72-2.11-1.06-4.36-1.39-6.74-.97-3.7.64-6.92,2.46-9.66,5.48-2.75,3.02-4.65,6.64-5.71,10.87-.64,1.76-1.14,3.64-1.48,5.64-.35,2.01-.54,3.84-.59,5.49-.11,4.51.62,8.5,2.19,11.96-.04.15-.11.29-.15.45v.03s-.01,0-.01,0c.01.11-13.77,54.95-37.58,99.01-3.05,5.64-.93,12.7,4.72,15.74,5.64,3.05,12.7.93,15.75-4.72,9.29-17.28,17.03-35.7,23.15-52.19,4.43-12.15,13.99-42.18,13.99-42.18,1.42.36,2.93.7,4.52,1.03,1.59.33,2.97.95,4.13,1.87,1.16.93,1.99,2.21,2.48,3.84.49,1.64.34,3.88-.44,6.7l-8.58,28.88c-1.56,5.51-2.41,10.45-2.52,14.81-.13,4.96.47,9.28,1.8,12.99,1.33,3.72,3.21,6.73,5.64,9.06,2.44,2.33,5.26,3.99,8.5,5.01,3.23.99,6.7,1.18,10.39.55,9.78-1.68,19-8.43,27.67-20.25,1.09-1.48,2.15-3.03,3.19-4.64,1.95,3.13,4.32,5.83,7.15,8.04,4.01,3.13,8.79,5.24,14.34,6.3,5.55,1.07,11.6,1.04,18.15-.08,6.2-1.07,12.54-3.21,19.04-6.42,6.49-3.21,12.71-7.65,18.67-13.32,2.38-2.26,4.66-4.79,6.89-7.47,1.77,2.55,3.81,4.81,6.22,6.68,4.01,3.13,8.79,5.23,14.34,6.3,5.54,1.07,11.6,1.05,18.15-.08,6.19-1.07,12.54-3.21,19.03-6.42,6.5-3.21,12.72-7.65,18.68-13.32,5.96-5.66,11.42-12.63,16.38-20.9,3.04-5.05,5.72-10.77,8.12-16.99,3.02-6.33,5.85-13.54,9.87-24.11,2.42-6.36,4.19-12.65,5.88-18.33,2.52-6.13,4.78-10.79,7.78-14,2.99-3.21,5.74-5.03,8.23-5.46,1.68-.28,3,.13,3.98,1.22.98,1.11,1.44,2.72,1.39,4.82-.02.76-.13,1.64-.34,2.64-.21,1.01-.43,2.07-.69,3.15l-13.72,47.06c-1.66,5.23-2.56,10.33-2.69,15.29-.13,5.27.52,9.76,1.95,13.49,1.43,3.72,3.44,6.7,6.04,8.95,2.6,2.26,5.59,3.8,8.99,4.64,3.4.84,6.99.93,10.79.28,4.53-.78,9.14-2.6,13.85-5.49,4.69-2.89,9.28-7.05,13.76-12.5,4.47-5.44,8.75-12.32,12.82-20.64.93-1.91,1.85-3.93,2.75-6,.03.85.04,1.71.04,2.58-1.15,21.1-5.84,43.31-50.65,50.29-19.88,2.77-58.73,8.67-88.96,21.46-74.11,28.97-81.96,109.02-81.96,109.02,15.23-31.94,75.1-35.39,99.39-48.83,24.3-13.45,14.54-43.33,14.54-43.33-50.66,15.8-81.82,47.26-81.82,47.26,13.62-18.73,31.44-31.87,49.68-41.16M574.49,386.81c1.15-3.65,2.75-6.58,4.76-8.8,2.02-2.21,4.04-3.5,6.07-3.85,2.5-.43,4.46.36,5.89,2.36,1.44,2,2.11,4.58,2.03,7.74-.05,1.96-.34,3.81-.85,5.54-.79,3.13-2.07,5.63-3.85,7.51-1.77,1.87-3.73,3.22-5.89,4.04-2.15.83-4.34,1.19-6.53,1.13-2.19-.08-4.1-.57-5.75-1.49l4.11-14.18ZM491.17,401.11c1.16-3.64,2.75-6.57,4.77-8.79,2.01-2.21,4.03-3.5,6.06-3.85,2.5-.43,4.46.36,5.9,2.36,1.43,2,2.11,4.57,2.03,7.74-.05,1.95-.34,3.8-.86,5.54-.79,3.13-2.08,5.63-3.84,7.51-1.77,1.87-3.73,3.22-5.89,4.05-2.15.82-4.33,1.19-6.52,1.11-2.2-.07-4.11-.56-5.75-1.48l4.1-14.18Z"/>
      <path class="st0" d="M699.43,844.3c-59.2,37.83-125.82,56.34-201.81,56.36-74.43-.02-139.31-14.09-197.24-49.96-5.12-3.18-11.85-1.6-15.02,3.52-3.17,5.13-1.6,11.86,3.53,15.04,62.06,38.48,131.63,53.26,208.73,53.23,79.52.03,150.8-19.62,213.58-59.79,5.07-3.25,6.56-10,3.31-15.08-3.24-5.08-9.99-6.56-15.07-3.32"/>
      <path class="st0" d="M215.94,780.32c-64.06-68.18-99.99-159.95-100.01-261.41.01-26.45,2.66-48.52,7.8-73.64,1.21-5.91-2.59-11.68-8.5-12.89-5.91-1.21-11.68,2.59-12.89,8.5-5.38,26.14-8.26,50.1-8.24,78.03-.02,106.62,37.91,204.02,105.92,276.37,4.13,4.39,11.04,4.6,15.44.47,4.39-4.13,4.6-11.04.48-15.43"/>
      <path class="st0" d="M557.4,140.76c131.06,18.21,233.2,95.28,286.84,211.01,2.53,5.47,9.02,7.85,14.49,5.32,5.47-2.53,7.85-9.02,5.32-14.49-56.38-122.15-165.67-204.5-303.67-223.47-5.97-.82-11.48,3.35-12.31,9.32-.83,5.97,3.35,11.48,9.32,12.31"/>
      <path class="st0" d="M882.18,438.64c-5.94,1.06-9.89,6.73-8.82,12.66,3.92,21.94,5.96,44.52,5.96,67.61,0,99.2-37.79,189.46-99.77,257.35-4.07,4.46-3.76,11.37.69,15.43,4.46,4.06,11.36,3.76,15.43-.7,65.5-71.73,105.48-167.29,105.47-272.08,0-24.37-2.16-48.25-6.3-71.45-1.06-5.93-6.73-9.88-12.66-8.82"/>
      <path class="st0" d="M140.16,355.91c5.42,2.66,11.95.42,14.61-4.99,55.16-112.31,160.03-193.33,288.6-210.42,5.97-.79,10.17-6.28,9.38-12.26-.79-5.98-6.28-10.18-12.26-9.39-136.12,18.07-247.26,104.06-305.32,222.45-2.65,5.42-.42,11.95,4.99,14.61"/>
      <path class="st0" d="M758.1,762.05c1.78,1.62,4.52,1.49,6.14-.3,58.6-64.45,94.35-150.28,94.35-244.44,0-21.91-1.93-43.36-5.64-64.2-.42-2.36-2.68-3.94-5.03-3.52-2.37.42-3.95,2.67-3.53,5.04,3.62,20.34,5.51,41.28,5.51,62.68,0,91.94-34.88,175.66-92.08,238.6-1.61,1.78-1.48,4.52.3,6.14"/>
      <path class="st0" d="M149.17,443.86c-2.36-.48-4.65,1.04-5.13,3.39-4.83,23.59-7.38,44.96-7.38,70.06,0,95.94,33.93,183.37,94.7,248.3,1.64,1.75,4.39,1.85,6.15.21,1.75-1.64,1.85-4.4.2-6.15-59.2-63.26-92.35-148.45-92.36-242.36,0-24.51,2.47-45.14,7.2-68.32.48-2.36-1.03-4.66-3.39-5.13"/>
      <path class="st0" d="M823.27,364.58c2.19-1.01,3.14-3.59,2.13-5.77-50.51-109.8-147.96-183.58-271.54-200.69-2.38-.33-4.57,1.34-4.9,3.71-.34,2.38,1.33,4.58,3.71,4.91,120.8,16.81,215.4,88.48,264.83,195.72,1.01,2.18,3.58,3.13,5.77,2.13"/>
      <path class="st0" d="M448.05,162.15c-.32-2.38-3.33-3.78-5.71-3.46-121.72,16.23-216.95,92.59-268.94,199.05-1.05,2.15-.15,4.77,2,5.81,2.15,1.05,4.76.17,5.82-2,50.84-104.03,143.57-178.41,262.27-194.25,2.38-.31,4.88-2.78,4.56-5.15"/>
      <path class="st0" d="M309.55,826.2c-1.26,2.04-.64,4.72,1.4,5.99,55.32,34.44,117.32,47.75,186.67,47.74,71.34.01,134.9-17.63,191-53.68,2.03-1.3,2.6-4,1.31-6.02-1.3-2.01-3.98-2.6-6.01-1.3-54.68,35.1-116.38,52.29-186.3,52.3-68.28-.01-128.41-13.02-182.07-46.42-2.04-1.27-4.72-.64-5.99,1.4"/>
    </g>
  </g>
</svg>