<?xml version="1.0" encoding="UTF-8"?>
<svg id="Layer_1" xmlns="http://www.w3.org/2000/svg" version="1.1" viewBox="0 0 1000 1000">
  <!-- Generator: Adobe Illustrator 29.4.0, SVG Export Plug-In . SVG Version: 2.1.0 Build 152)  -->
  <defs>
    <style>
      .st0 {
        font-family: Poppins-Black, Poppins;
        font-size: 114.58px;
        font-weight: 800;
        letter-spacing: .15em;
      }

      .st0, .st1 {
        fill: #4ab8e9;
      }

      .st2 {
        font-family: DunbarText-ExtraBold, 'Dunbar Text';
        font-size: 85.07px;
        font-weight: 700;
      }

      .st2, .st3 {
        fill: #a4cc39;
      }
    </style>
  </defs>
  <text class="st0" transform="translate(249.37 797.03)"><tspan x="0" y="0">CHÉMIU</tspan></text>
  <g>
    <path class="st1" d="M585.4,379.39c-4.26,0-7.72,3.46-7.72,7.72s3.46,7.72,7.72,7.72c18.03,0,32.7,14.67,32.7,32.7,0,4.26,3.46,7.72,7.72,7.72s7.72-3.46,7.72-7.72c0-26.55-21.6-48.15-48.15-48.15Z"/>
    <path class="st1" d="M692.71,537.53c-4.26,0-7.72,3.46-7.72,7.72,0,18.03-14.67,32.7-32.7,32.7-4.26,0-7.72,3.46-7.72,7.72s3.46,7.72,7.72,7.72c26.55,0,48.15-21.6,48.15-48.15,0-4.26-3.46-7.72-7.72-7.72Z"/>
    <g>
      <path class="st1" d="M815.89,442.59c-22.74,0-41.25,18.5-41.25,41.25s18.5,41.25,41.25,41.25,41.25-18.5,41.25-41.25-18.5-41.25-41.25-41.25ZM815.89,501.92c-9.97,0-18.08-8.11-18.08-18.08s8.11-18.08,18.08-18.08,18.08,8.11,18.08,18.08-8.11,18.08-18.08,18.08Z"/>
      <path class="st1" d="M649.18,318.95c21.69,0,39.33-17.64,39.33-39.33s-17.64-39.33-39.33-39.33-39.33,17.64-39.33,39.33,17.64,39.33,39.33,39.33ZM649.18,263.45c8.91,0,16.17,7.25,16.17,16.17s-7.25,16.17-16.17,16.17-16.17-7.25-16.17-16.17,7.25-16.17,16.17-16.17Z"/>
      <path class="st1" d="M444.92,406.92c14.37,0,26.05-11.69,26.05-26.05s-11.69-26.05-26.05-26.05-26.05,11.69-26.05,26.05,11.69,26.05,26.05,26.05ZM444.92,370.16c5.91,0,10.71,4.8,10.71,10.71s-4.8,10.71-10.71,10.71-10.71-4.8-10.71-10.71,4.8-10.71,10.71-10.71Z"/>
      <path class="st1" d="M317.6,524.98c14.37,0,26.05-11.69,26.05-26.05s-11.69-26.05-26.05-26.05-26.05,11.69-26.05,26.05,11.69,26.05,26.05,26.05ZM317.6,488.22c5.91,0,10.71,4.8,10.71,10.71s-4.8,10.71-10.71,10.71-10.71-4.8-10.71-10.71,4.8-10.71,10.71-10.71Z"/>
      <path class="st1" d="M750.65,437.76c0-30.65-24.93-55.58-55.58-55.58-10.49,0-20.51,2.89-29.14,8.23-6.24-14.17-15.83-26.81-27.98-36.65-17.28-13.99-39.06-21.7-61.33-21.7-12.91,0-25.24,2.54-36.53,7.12l-44.43-16.74c-.21.41-.32.86-.61,1.24l-13.93,18.03,33.54,12.64c-20.98,17.31-34.64,43.19-35.52,72.24-7.53-2.93-15.61-4.46-23.9-4.46-36.3,0-65.83,29.54-65.83,65.85,0,5.15.61,10.28,1.8,15.27-16.32,3.6-30.38,13.28-39.69,26.53l-12.83-20.32-15.58,17.22c-.19.21-.44.29-.64.47l17.94,28.43c.06.1.14.18.2.27-.68,3.8-1.04,7.7-1.04,11.69,0,36.3,29.53,65.83,65.83,65.83,24.11,0,45.8-13.24,57.26-33.35,11.84,9.65,26.75,15.08,42.48,15.08,19.93,0,38.37-8.73,50.93-23.29,19.1,26.33,50.01,42.54,83.25,42.54,56.65,0,102.74-46.09,102.74-102.75,0-17.69-4.44-34.73-12.93-49.93,13.38-10.37,21.53-26.51,21.53-43.91ZM703.63,484.75c9.98,13.66,15.25,29.86,15.25,46.85,0,43.89-35.7,79.59-79.58,79.59-31.03,0-59.43-18.23-72.37-46.44-1.89-4.12-6-6.76-10.53-6.76-.05,0-.11,0-.16,0-4.59.06-8.7,2.83-10.5,7.05-6.94,16.34-22.89,26.89-40.62,26.89-14.9,0-28.69-7.45-36.9-19.92-2.58-3.92-7.26-5.9-11.87-5.01-4.61.89-8.22,4.47-9.15,9.07-4.01,19.77-21.59,34.13-41.82,34.13-23.53,0-42.67-19.14-42.67-42.67s19.14-42.67,42.67-42.67c.52,0,1.04.01,1.61.03,4.12.09,7.97-1.99,10.13-5.49,2.16-3.5,2.3-7.88.38-11.52-3.27-6.17-4.93-12.87-4.93-19.91,0-23.53,19.14-42.68,42.67-42.68,11.1,0,21.6,4.23,29.59,11.91,3.69,3.55,9.28,4.25,13.74,1.73,4.46-2.52,6.73-7.68,5.58-12.67-1.25-5.45-1.88-11.06-1.88-16.68,0-41.01,33.36-74.37,74.36-74.37,34.48,0,64.99,24.38,72.55,57.96.98,4.37,4.39,7.78,8.76,8.76,4.36.98,8.91-.64,11.66-4.17,6.18-7.9,15.47-12.43,25.48-12.43,17.87,0,32.41,14.54,32.41,32.41,0,12.78-7.54,24.39-19.21,29.58-3.2,1.42-5.58,4.22-6.48,7.6-.9,3.38-.23,6.99,1.84,9.81Z"/>
      <path class="st3" d="M349.33,390.66c-4.67-.97-9.25-2.53-13.64-4.67l-93.3-45.41c-22.69-11.04-39.74-30.33-48.02-54.32-8.28-23.98-6.77-49.68,4.27-72.36h0c11.04-22.67,30.33-39.72,54.32-48.01,23.97-8.29,49.66-6.79,72.36,4.27l90.2,43.9c14.76,7.19,25.87,19.74,31.25,35.35,5.39,15.61,4.4,32.33-2.79,47.1l-30.46,62.59c-6.79,13.94-18.64,24.42-33.38,29.5-10.09,3.49-20.68,4.15-30.83,2.04ZM298.11,186.96c-12.17-2.53-24.89-1.73-37.02,2.46-17.71,6.12-31.94,18.68-40.06,35.38h0c-8.13,16.7-9.25,35.65-3.14,53.35,6.11,17.7,18.68,31.94,35.39,40.07l93.29,45.4c7.98,3.86,16.99,4.4,25.47,1.48,8.45-2.92,15.24-8.91,19.12-16.88l30.46-62.6c4.28-8.79,4.87-18.76,1.65-28.09-3.22-9.33-9.83-16.82-18.62-21.1l-90.2-43.9c-5.26-2.56-10.75-4.42-16.34-5.58Z"/>
    </g>
  </g>
  <text class="st2" transform="translate(223.17 257.34) rotate(27.08)"><tspan x="0" y="0">EKO</tspan></text>
</svg>